<?xml version="1.0" standalone="no"?>
<!DOCTYPE svg PUBLIC "-//W3C//DTD SVG 20010904//EN"
 "http://www.w3.org/TR/2001/REC-SVG-20010904/DTD/svg10.dtd">
<svg version="1.0" xmlns="http://www.w3.org/2000/svg"
 width="256.000000pt" height="256.000000pt" viewBox="0 0 256.000000 256.000000"
 preserveAspectRatio="xMidYMid meet">
<metadata>
Created by potrace 1.11, written by Peter Selinger 2001-2013
</metadata>
<g transform="translate(0.000000,256.000000) scale(0.100000,-0.100000)"
fill="#000000" stroke="none">
<path d="M0 1280 l0 -1280 1280 0 1280 0 0 1280 0 1280 -1280 0 -1280 0 0
-1280z m1287 714 c-3 -3 -12 -4 -19 -1 -8 3 -5 6 6 6 11 1 17 -2 13 -5z m80 0
c-3 -3 -12 -4 -19 -1 -8 3 -5 6 6 6 11 1 17 -2 13 -5z m34 -30 c66 -19 126
-70 161 -137 16 -32 21 -61 22 -117 1 -71 -2 -79 -48 -164 l-49 -89 -33 54
c-46 74 -48 82 -24 128 36 72 21 134 -44 179 -66 45 -160 14 -193 -65 -19 -48
-10 -82 49 -183 28 -47 68 -115 90 -152 22 -37 44 -66 48 -63 5 3 12 0 16 -6
4 -8 3 -9 -4 -5 -20 12 -13 -10 17 -61 16 -26 63 -106 104 -178 41 -71 80
-130 85 -130 6 0 14 -4 19 -9 5 -5 3 -6 -4 -2 -8 4 -13 2 -13 -6 1 -17 53 -93
65 -93 9 0 86 130 385 650 10 17 27 47 40 68 l22 37 79 0 79 0 -36 -66 c-20
-37 -44 -81 -55 -98 -22 -35 -24 -51 -7 -40 7 4 8 3 4 -5 -4 -6 -11 -9 -16 -6
-7 4 -70 -86 -70 -101 0 -3 -16 -30 -35 -60 -19 -30 -35 -56 -35 -59 0 -3 -30
-55 -66 -116 -36 -61 -63 -117 -60 -125 3 -7 0 -13 -6 -11 -6 1 -56 -74 -110
-168 -54 -93 -102 -176 -107 -183 -5 -10 -25 15 -66 85 -32 54 -73 124 -92
156 -19 31 -39 55 -44 52 -5 -4 -6 0 -3 8 3 8 -27 68 -65 135 -39 66 -71 125
-71 131 0 6 -3 11 -7 11 -5 0 -13 10 -19 23 -6 12 -65 114 -130 227 l-119 205
0 90 c0 105 15 144 74 198 84 75 160 92 272 61z m-261 -27 c0 -2 -15 -16 -32
-33 l-33 -29 29 33 c28 30 36 37 36 29z m187 -113 c-3 -3 -12 -4 -19 -1 -8 3
-5 6 6 6 11 1 17 -2 13 -5z m280 -101 c-3 -10 -5 -4 -5 12 0 17 2 24 5 18 2
-7 2 -21 0 -30z m-580 -30 c-3 -10 -5 -2 -5 17 0 19 2 27 5 18 2 -10 2 -26 0
-35z m580 -25 c-3 -7 -5 -2 -5 12 0 14 2 19 5 13 2 -7 2 -19 0 -25z m-1263
-44 c3 -8 2 -12 -4 -9 -6 3 -10 10 -10 16 0 14 7 11 14 -7z m208 -54 c17 -27
35 -47 39 -44 5 3 6 -2 3 -10 -3 -8 6 -31 19 -53 20 -30 169 -289 313 -539 34
-61 56 -54 110 35 24 40 44 75 44 77 0 3 12 23 26 45 14 23 23 47 20 54 -12
31 26 0 50 -41 14 -24 30 -42 34 -39 5 3 12 0 16 -6 4 -7 3 -9 -4 -5 -7 4 -10
-5 -9 -26 2 -26 -25 -79 -118 -240 -66 -114 -122 -208 -125 -208 -3 0 -22 32
-44 71 -24 45 -41 67 -46 59 -5 -8 -9 -8 -13 4 -3 8 -2 16 3 18 11 4 -68 134
-80 131 -5 -2 -7 3 -5 10 6 15 -238 442 -253 442 -6 0 -14 4 -19 9 -5 5 -3 6
5 2 15 -9 15 -1 1 25 -5 11 -13 17 -18 15 -4 -3 -13 5 -21 17 -12 20 -12 21 3
8 10 -7 17 -11 17 -8 0 6 -63 116 -122 215 l-20 32 82 0 81 0 31 -50z m948
-136 c0 -8 -19 -13 -24 -6 -3 5 1 9 9 9 8 0 15 -2 15 -3z m-246 -190 c3 -8 2
-12 -4 -9 -6 3 -10 10 -10 16 0 14 7 11 14 -7z m-100 -72 c3 -5 -1 -9 -9 -9
-8 0 -12 4 -9 9 3 4 7 8 9 8 2 0 6 -4 9 -8z m514 -297 c-3 -3 -9 2 -12 12 -6
14 -5 15 5 6 7 -7 10 -15 7 -18z m92 -185 c-6 -11 -13 -20 -16 -20 -2 0 0 9 6
20 6 11 13 20 16 20 2 0 0 -9 -6 -20z"/>
</g>
</svg>
